<mxfile host="app.diagrams.net" modified="2022-12-15T23:44:44.923Z" agent="5.0 (Windows NT 10.0; Win64; x64) AppleWebKit/537.36 (KHTML, like Gecko) Chrome/108.0.0.0 Safari/537.36" etag="q98frX1he7jfJk6SH6wq" version="20.6.0" type="github" pages="2">
  <diagram id="UPsKvsZW6ZB44q9W5nDS" name="Страница 1">
    <mxGraphModel dx="2249" dy="794" grid="1" gridSize="10" guides="1" tooltips="1" connect="1" arrows="1" fold="1" page="1" pageScale="1" pageWidth="827" pageHeight="1169" math="0" shadow="0">
      <root>
        <mxCell id="0" />
        <mxCell id="1" parent="0" />
        <mxCell id="dIxgZ7Lg5NKT2PRfQF9l-1" value="Расчёт базовой оценки критичности уязвимости по методологии CVSS v3.1" style="rounded=0;whiteSpace=wrap;html=1;" parent="1" vertex="1">
          <mxGeometry x="280" y="200" width="240" height="160" as="geometry" />
        </mxCell>
        <mxCell id="dIxgZ7Lg5NKT2PRfQF9l-2" value="" style="endArrow=classic;html=1;rounded=0;entryX=0;entryY=0.5;entryDx=0;entryDy=0;" parent="1" target="dIxgZ7Lg5NKT2PRfQF9l-1" edge="1">
          <mxGeometry width="50" height="50" relative="1" as="geometry">
            <mxPoint x="120" y="280" as="sourcePoint" />
            <mxPoint x="130" y="260" as="targetPoint" />
          </mxGeometry>
        </mxCell>
        <mxCell id="dIxgZ7Lg5NKT2PRfQF9l-3" value="Информация об уязвимости" style="text;html=1;align=center;verticalAlign=middle;resizable=0;points=[];autosize=1;strokeColor=none;fillColor=none;" parent="1" vertex="1">
          <mxGeometry x="100" y="250" width="180" height="30" as="geometry" />
        </mxCell>
        <mxCell id="dIxgZ7Lg5NKT2PRfQF9l-4" value="" style="endArrow=classic;html=1;rounded=0;exitX=1;exitY=0.5;exitDx=0;exitDy=0;" parent="1" source="dIxgZ7Lg5NKT2PRfQF9l-1" edge="1">
          <mxGeometry width="50" height="50" relative="1" as="geometry">
            <mxPoint x="590" y="300" as="sourcePoint" />
            <mxPoint x="680" y="280" as="targetPoint" />
          </mxGeometry>
        </mxCell>
        <mxCell id="dIxgZ7Lg5NKT2PRfQF9l-5" value="&lt;span style=&quot;&quot;&gt;Базовая оценка&lt;br&gt;критичности&lt;br&gt;уязвимости&lt;/span&gt;" style="text;html=1;align=center;verticalAlign=middle;resizable=0;points=[];autosize=1;strokeColor=none;fillColor=none;" parent="1" vertex="1">
          <mxGeometry x="540" y="220" width="110" height="60" as="geometry" />
        </mxCell>
        <mxCell id="dIxgZ7Lg5NKT2PRfQF9l-6" value="" style="endArrow=classic;html=1;rounded=0;entryX=0.75;entryY=0;entryDx=0;entryDy=0;" parent="1" source="dIxgZ7Lg5NKT2PRfQF9l-7" target="dIxgZ7Lg5NKT2PRfQF9l-1" edge="1">
          <mxGeometry width="50" height="50" relative="1" as="geometry">
            <mxPoint x="340" y="80" as="sourcePoint" />
            <mxPoint x="390" y="60" as="targetPoint" />
          </mxGeometry>
        </mxCell>
        <mxCell id="dIxgZ7Lg5NKT2PRfQF9l-7" value="Формула расчёта&lt;br&gt;оценки" style="text;html=1;align=center;verticalAlign=middle;resizable=0;points=[];autosize=1;strokeColor=none;fillColor=none;" parent="1" vertex="1">
          <mxGeometry x="399" y="35" width="120" height="40" as="geometry" />
        </mxCell>
        <mxCell id="dIxgZ7Lg5NKT2PRfQF9l-8" value="" style="endArrow=classic;html=1;rounded=0;entryX=0.75;entryY=1;entryDx=0;entryDy=0;" parent="1" target="dIxgZ7Lg5NKT2PRfQF9l-1" edge="1">
          <mxGeometry width="50" height="50" relative="1" as="geometry">
            <mxPoint x="460" y="480" as="sourcePoint" />
            <mxPoint x="600" y="440" as="targetPoint" />
          </mxGeometry>
        </mxCell>
        <mxCell id="dIxgZ7Lg5NKT2PRfQF9l-9" value="Калькулятор&lt;br&gt;CVSS" style="text;html=1;align=center;verticalAlign=middle;resizable=0;points=[];autosize=1;strokeColor=none;fillColor=none;" parent="1" vertex="1">
          <mxGeometry x="414" y="475" width="90" height="40" as="geometry" />
        </mxCell>
        <mxCell id="dIxgZ7Lg5NKT2PRfQF9l-10" value="" style="endArrow=classic;html=1;rounded=0;entryX=0.25;entryY=1;entryDx=0;entryDy=0;" parent="1" source="dIxgZ7Lg5NKT2PRfQF9l-11" target="dIxgZ7Lg5NKT2PRfQF9l-1" edge="1">
          <mxGeometry width="50" height="50" relative="1" as="geometry">
            <mxPoint x="400" y="480" as="sourcePoint" />
            <mxPoint x="430" y="450" as="targetPoint" />
          </mxGeometry>
        </mxCell>
        <mxCell id="dIxgZ7Lg5NKT2PRfQF9l-11" value="&amp;nbsp;Аналитик ИБ" style="text;html=1;align=center;verticalAlign=middle;resizable=0;points=[];autosize=1;strokeColor=none;fillColor=none;" parent="1" vertex="1">
          <mxGeometry x="290" y="475" width="100" height="30" as="geometry" />
        </mxCell>
        <mxCell id="dIxgZ7Lg5NKT2PRfQF9l-12" value="Анализ вектора атаки" style="rounded=0;whiteSpace=wrap;html=1;" parent="1" vertex="1">
          <mxGeometry x="130" y="730" width="120" height="60" as="geometry" />
        </mxCell>
        <mxCell id="dIxgZ7Lg5NKT2PRfQF9l-13" value="" style="endArrow=classic;html=1;rounded=0;entryX=0;entryY=0.5;entryDx=0;entryDy=0;" parent="1" target="dIxgZ7Lg5NKT2PRfQF9l-12" edge="1">
          <mxGeometry width="50" height="50" relative="1" as="geometry">
            <mxPoint x="-40" y="760" as="sourcePoint" />
            <mxPoint x="70" y="710" as="targetPoint" />
          </mxGeometry>
        </mxCell>
        <mxCell id="dIxgZ7Lg5NKT2PRfQF9l-14" value="Информация об уязвимости" style="text;html=1;align=center;verticalAlign=middle;resizable=0;points=[];autosize=1;strokeColor=none;fillColor=none;" parent="1" vertex="1">
          <mxGeometry x="-50" y="725" width="180" height="30" as="geometry" />
        </mxCell>
        <mxCell id="dIxgZ7Lg5NKT2PRfQF9l-15" value="" style="endArrow=classic;html=1;rounded=0;entryX=0.25;entryY=0;entryDx=0;entryDy=0;" parent="1" source="dIxgZ7Lg5NKT2PRfQF9l-18" target="dIxgZ7Lg5NKT2PRfQF9l-1" edge="1">
          <mxGeometry width="50" height="50" relative="1" as="geometry">
            <mxPoint x="280" y="90" as="sourcePoint" />
            <mxPoint x="290" y="140" as="targetPoint" />
          </mxGeometry>
        </mxCell>
        <mxCell id="dIxgZ7Lg5NKT2PRfQF9l-18" value="Правила&lt;br&gt;определения&lt;br&gt;метрик" style="text;html=1;align=center;verticalAlign=middle;resizable=0;points=[];autosize=1;strokeColor=none;fillColor=none;" parent="1" vertex="1">
          <mxGeometry x="290" y="35" width="100" height="60" as="geometry" />
        </mxCell>
        <mxCell id="dIxgZ7Lg5NKT2PRfQF9l-20" value="" style="endArrow=classic;html=1;rounded=0;entryX=0.5;entryY=0;entryDx=0;entryDy=0;" parent="1" source="dIxgZ7Lg5NKT2PRfQF9l-21" target="dIxgZ7Lg5NKT2PRfQF9l-12" edge="1">
          <mxGeometry width="50" height="50" relative="1" as="geometry">
            <mxPoint x="190" y="660" as="sourcePoint" />
            <mxPoint x="220" y="610" as="targetPoint" />
          </mxGeometry>
        </mxCell>
        <mxCell id="dIxgZ7Lg5NKT2PRfQF9l-21" value="Правила&lt;br&gt;определения&lt;br&gt;метрик" style="text;html=1;align=center;verticalAlign=middle;resizable=0;points=[];autosize=1;strokeColor=none;fillColor=none;" parent="1" vertex="1">
          <mxGeometry x="140" y="610" width="100" height="60" as="geometry" />
        </mxCell>
        <mxCell id="dIxgZ7Lg5NKT2PRfQF9l-22" value="" style="endArrow=classic;html=1;rounded=0;exitX=1;exitY=0.5;exitDx=0;exitDy=0;entryX=-0.006;entryY=0.088;entryDx=0;entryDy=0;entryPerimeter=0;" parent="1" source="dIxgZ7Lg5NKT2PRfQF9l-12" target="EnKM5lxazUut5QGVH7Wx-31" edge="1">
          <mxGeometry width="50" height="50" relative="1" as="geometry">
            <mxPoint x="310" y="780" as="sourcePoint" />
            <mxPoint x="1300" y="760" as="targetPoint" />
            <Array as="points">
              <mxPoint x="1290" y="760" />
              <mxPoint x="1290" y="1470" />
            </Array>
          </mxGeometry>
        </mxCell>
        <mxCell id="dIxgZ7Lg5NKT2PRfQF9l-23" value="Метрика&lt;br&gt;вектора атаки" style="text;html=1;align=center;verticalAlign=middle;resizable=0;points=[];autosize=1;strokeColor=none;fillColor=none;" parent="1" vertex="1">
          <mxGeometry x="1191" y="715" width="100" height="40" as="geometry" />
        </mxCell>
        <mxCell id="dIxgZ7Lg5NKT2PRfQF9l-25" value="Анализ сложности проведения атаки" style="rounded=0;whiteSpace=wrap;html=1;" parent="1" vertex="1">
          <mxGeometry x="240" y="830" width="120" height="60" as="geometry" />
        </mxCell>
        <mxCell id="dIxgZ7Lg5NKT2PRfQF9l-26" value="" style="endArrow=classic;html=1;rounded=0;entryX=0;entryY=0.5;entryDx=0;entryDy=0;" parent="1" target="dIxgZ7Lg5NKT2PRfQF9l-25" edge="1">
          <mxGeometry width="50" height="50" relative="1" as="geometry">
            <mxPoint x="80" y="760" as="sourcePoint" />
            <mxPoint x="130" y="850" as="targetPoint" />
            <Array as="points">
              <mxPoint x="80" y="860" />
            </Array>
          </mxGeometry>
        </mxCell>
        <mxCell id="dIxgZ7Lg5NKT2PRfQF9l-28" value="" style="endArrow=classic;html=1;rounded=0;exitX=1;exitY=0.5;exitDx=0;exitDy=0;entryX=0.002;entryY=0.174;entryDx=0;entryDy=0;entryPerimeter=0;" parent="1" source="dIxgZ7Lg5NKT2PRfQF9l-25" target="EnKM5lxazUut5QGVH7Wx-31" edge="1">
          <mxGeometry width="50" height="50" relative="1" as="geometry">
            <mxPoint x="404" y="865" as="sourcePoint" />
            <mxPoint x="1310" y="1478" as="targetPoint" />
            <Array as="points">
              <mxPoint x="1280" y="860" />
              <mxPoint x="1280" y="1479" />
            </Array>
          </mxGeometry>
        </mxCell>
        <mxCell id="dIxgZ7Lg5NKT2PRfQF9l-29" value="Метрика&lt;br&gt;сложности атаки" style="text;html=1;align=center;verticalAlign=middle;resizable=0;points=[];autosize=1;strokeColor=none;fillColor=none;" parent="1" vertex="1">
          <mxGeometry x="1160" y="820" width="120" height="40" as="geometry" />
        </mxCell>
        <mxCell id="dIxgZ7Lg5NKT2PRfQF9l-30" value="Анализ привилегий, требуемых для совершения атаки" style="rounded=0;whiteSpace=wrap;html=1;" parent="1" vertex="1">
          <mxGeometry x="350" y="920" width="120" height="60" as="geometry" />
        </mxCell>
        <mxCell id="dIxgZ7Lg5NKT2PRfQF9l-31" value="" style="endArrow=classic;html=1;rounded=0;entryX=0;entryY=0.5;entryDx=0;entryDy=0;" parent="1" target="dIxgZ7Lg5NKT2PRfQF9l-30" edge="1">
          <mxGeometry width="50" height="50" relative="1" as="geometry">
            <mxPoint x="80" y="760" as="sourcePoint" />
            <mxPoint x="350" y="950" as="targetPoint" />
            <Array as="points">
              <mxPoint x="80" y="950" />
            </Array>
          </mxGeometry>
        </mxCell>
        <mxCell id="dIxgZ7Lg5NKT2PRfQF9l-32" value="" style="endArrow=classic;html=1;rounded=0;exitX=1;exitY=0.5;exitDx=0;exitDy=0;entryX=-0.002;entryY=0.282;entryDx=0;entryDy=0;entryPerimeter=0;" parent="1" source="dIxgZ7Lg5NKT2PRfQF9l-30" target="EnKM5lxazUut5QGVH7Wx-31" edge="1">
          <mxGeometry width="50" height="50" relative="1" as="geometry">
            <mxPoint x="570" y="980" as="sourcePoint" />
            <mxPoint x="1280" y="960" as="targetPoint" />
            <Array as="points">
              <mxPoint x="1270" y="950" />
              <mxPoint x="1270" y="1491" />
            </Array>
          </mxGeometry>
        </mxCell>
        <mxCell id="dIxgZ7Lg5NKT2PRfQF9l-33" value="Метрика&lt;br&gt;требуемых&lt;br&gt;привилегий" style="text;html=1;align=center;verticalAlign=middle;resizable=0;points=[];autosize=1;strokeColor=none;fillColor=none;" parent="1" vertex="1">
          <mxGeometry x="1180" y="890" width="90" height="60" as="geometry" />
        </mxCell>
        <mxCell id="dIxgZ7Lg5NKT2PRfQF9l-34" value="Анализ наличия у злоумышленника потребности во взаимодействии с легитимным пользователем" style="rounded=0;whiteSpace=wrap;html=1;" parent="1" vertex="1">
          <mxGeometry x="460" y="1010" width="150" height="90" as="geometry" />
        </mxCell>
        <mxCell id="EnKM5lxazUut5QGVH7Wx-1" value="" style="endArrow=classic;html=1;rounded=0;entryX=0;entryY=0.5;entryDx=0;entryDy=0;" parent="1" target="dIxgZ7Lg5NKT2PRfQF9l-34" edge="1">
          <mxGeometry width="50" height="50" relative="1" as="geometry">
            <mxPoint x="80" y="950" as="sourcePoint" />
            <mxPoint x="160" y="1030" as="targetPoint" />
            <Array as="points">
              <mxPoint x="80" y="1055" />
            </Array>
          </mxGeometry>
        </mxCell>
        <mxCell id="EnKM5lxazUut5QGVH7Wx-3" value="" style="endArrow=classic;html=1;rounded=0;exitX=1;exitY=0.5;exitDx=0;exitDy=0;entryX=0;entryY=0.364;entryDx=0;entryDy=0;entryPerimeter=0;" parent="1" source="dIxgZ7Lg5NKT2PRfQF9l-34" target="EnKM5lxazUut5QGVH7Wx-31" edge="1">
          <mxGeometry width="50" height="50" relative="1" as="geometry">
            <mxPoint x="610" y="1054.5" as="sourcePoint" />
            <mxPoint x="1390" y="1060" as="targetPoint" />
            <Array as="points">
              <mxPoint x="1260" y="1055" />
              <mxPoint x="1260" y="1500" />
            </Array>
          </mxGeometry>
        </mxCell>
        <mxCell id="EnKM5lxazUut5QGVH7Wx-4" value="Метрика&lt;br&gt;взаимодействия&lt;br&gt;с пользователем" style="text;html=1;align=center;verticalAlign=middle;resizable=0;points=[];autosize=1;strokeColor=none;fillColor=none;" parent="1" vertex="1">
          <mxGeometry x="1140" y="990" width="120" height="60" as="geometry" />
        </mxCell>
        <mxCell id="EnKM5lxazUut5QGVH7Wx-5" value="Анализ влияния уязвимости в одном компоненте на ресурсы в компонентах за пределами области его сферы безопасности" style="rounded=0;whiteSpace=wrap;html=1;" parent="1" vertex="1">
          <mxGeometry x="600" y="1120" width="190" height="80" as="geometry" />
        </mxCell>
        <mxCell id="EnKM5lxazUut5QGVH7Wx-6" value="" style="endArrow=classic;html=1;rounded=0;" parent="1" target="EnKM5lxazUut5QGVH7Wx-5" edge="1">
          <mxGeometry width="50" height="50" relative="1" as="geometry">
            <mxPoint x="80" y="1050" as="sourcePoint" />
            <mxPoint x="120" y="1110" as="targetPoint" />
            <Array as="points">
              <mxPoint x="80" y="1160" />
            </Array>
          </mxGeometry>
        </mxCell>
        <mxCell id="EnKM5lxazUut5QGVH7Wx-7" value="" style="endArrow=classic;html=1;rounded=0;exitX=1;exitY=0.5;exitDx=0;exitDy=0;entryX=0;entryY=0.455;entryDx=0;entryDy=0;entryPerimeter=0;" parent="1" source="EnKM5lxazUut5QGVH7Wx-5" target="EnKM5lxazUut5QGVH7Wx-31" edge="1">
          <mxGeometry width="50" height="50" relative="1" as="geometry">
            <mxPoint x="790" y="1168" as="sourcePoint" />
            <mxPoint x="920" y="1160" as="targetPoint" />
            <Array as="points">
              <mxPoint x="1250" y="1160" />
              <mxPoint x="1250" y="1510" />
            </Array>
          </mxGeometry>
        </mxCell>
        <mxCell id="EnKM5lxazUut5QGVH7Wx-8" value="Метрика&lt;br&gt;сферы&lt;br&gt;безопасности" style="text;html=1;align=center;verticalAlign=middle;resizable=0;points=[];autosize=1;strokeColor=none;fillColor=none;" parent="1" vertex="1">
          <mxGeometry x="1150" y="1100" width="100" height="60" as="geometry" />
        </mxCell>
        <mxCell id="EnKM5lxazUut5QGVH7Wx-9" value="Анализ влияния эксплуатации уязвимости на конфиденциальность" style="rounded=0;whiteSpace=wrap;html=1;" parent="1" vertex="1">
          <mxGeometry x="785" y="1220" width="120" height="60" as="geometry" />
        </mxCell>
        <mxCell id="EnKM5lxazUut5QGVH7Wx-10" value="" style="endArrow=classic;html=1;rounded=0;entryX=0;entryY=0.5;entryDx=0;entryDy=0;" parent="1" target="EnKM5lxazUut5QGVH7Wx-9" edge="1">
          <mxGeometry width="50" height="50" relative="1" as="geometry">
            <mxPoint x="80" y="1160" as="sourcePoint" />
            <mxPoint x="380" y="1270" as="targetPoint" />
            <Array as="points">
              <mxPoint x="80" y="1250" />
            </Array>
          </mxGeometry>
        </mxCell>
        <mxCell id="EnKM5lxazUut5QGVH7Wx-11" value="" style="endArrow=classic;html=1;rounded=0;exitX=1;exitY=0.5;exitDx=0;exitDy=0;entryX=0.005;entryY=0.641;entryDx=0;entryDy=0;entryPerimeter=0;" parent="1" source="EnKM5lxazUut5QGVH7Wx-9" target="EnKM5lxazUut5QGVH7Wx-31" edge="1">
          <mxGeometry width="50" height="50" relative="1" as="geometry">
            <mxPoint x="905" y="1250" as="sourcePoint" />
            <mxPoint x="1035" y="1250" as="targetPoint" />
            <Array as="points">
              <mxPoint x="1230" y="1250" />
              <mxPoint x="1230" y="1531" />
            </Array>
          </mxGeometry>
        </mxCell>
        <mxCell id="EnKM5lxazUut5QGVH7Wx-12" value="Метрика&lt;br&gt;влияния на&lt;br&gt;конфиденциальность" style="text;html=1;align=center;verticalAlign=middle;resizable=0;points=[];autosize=1;strokeColor=none;fillColor=none;" parent="1" vertex="1">
          <mxGeometry x="1086" y="1190" width="140" height="60" as="geometry" />
        </mxCell>
        <mxCell id="EnKM5lxazUut5QGVH7Wx-13" value="Анализ влияния эксплуатации уязвимости на целостность" style="rounded=0;whiteSpace=wrap;html=1;" parent="1" vertex="1">
          <mxGeometry x="890" y="1300" width="120" height="60" as="geometry" />
        </mxCell>
        <mxCell id="EnKM5lxazUut5QGVH7Wx-14" value="" style="endArrow=classic;html=1;rounded=0;" parent="1" target="EnKM5lxazUut5QGVH7Wx-13" edge="1">
          <mxGeometry width="50" height="50" relative="1" as="geometry">
            <mxPoint x="80" y="1250" as="sourcePoint" />
            <mxPoint x="785" y="1340" as="targetPoint" />
            <Array as="points">
              <mxPoint x="80" y="1330" />
            </Array>
          </mxGeometry>
        </mxCell>
        <mxCell id="EnKM5lxazUut5QGVH7Wx-15" value="" style="endArrow=classic;html=1;rounded=0;entryX=0;entryY=0.75;entryDx=0;entryDy=0;" parent="1" source="EnKM5lxazUut5QGVH7Wx-13" target="EnKM5lxazUut5QGVH7Wx-31" edge="1">
          <mxGeometry width="50" height="50" relative="1" as="geometry">
            <mxPoint x="1010" y="1330" as="sourcePoint" />
            <mxPoint x="1140" y="1330" as="targetPoint" />
            <Array as="points">
              <mxPoint x="1210" y="1330" />
              <mxPoint x="1210" y="1543" />
            </Array>
          </mxGeometry>
        </mxCell>
        <mxCell id="EnKM5lxazUut5QGVH7Wx-16" value="Метрика&lt;br&gt;влияния на&lt;br&gt;целостность" style="text;html=1;align=center;verticalAlign=middle;resizable=0;points=[];autosize=1;strokeColor=none;fillColor=none;" parent="1" vertex="1">
          <mxGeometry x="1120" y="1270" width="90" height="60" as="geometry" />
        </mxCell>
        <mxCell id="EnKM5lxazUut5QGVH7Wx-17" value="Анализ влияния эксплуатации уязвимости на доступность" style="rounded=0;whiteSpace=wrap;html=1;" parent="1" vertex="1">
          <mxGeometry x="991" y="1380" width="120" height="60" as="geometry" />
        </mxCell>
        <mxCell id="EnKM5lxazUut5QGVH7Wx-18" value="" style="endArrow=classic;html=1;rounded=0;" parent="1" target="EnKM5lxazUut5QGVH7Wx-17" edge="1">
          <mxGeometry width="50" height="50" relative="1" as="geometry">
            <mxPoint x="80" y="1330" as="sourcePoint" />
            <mxPoint x="785" y="1420" as="targetPoint" />
            <Array as="points">
              <mxPoint x="80" y="1410" />
            </Array>
          </mxGeometry>
        </mxCell>
        <mxCell id="EnKM5lxazUut5QGVH7Wx-19" value="" style="endArrow=classic;html=1;rounded=0;entryX=0;entryY=0.883;entryDx=0;entryDy=0;entryPerimeter=0;" parent="1" source="EnKM5lxazUut5QGVH7Wx-17" target="EnKM5lxazUut5QGVH7Wx-31" edge="1">
          <mxGeometry width="50" height="50" relative="1" as="geometry">
            <mxPoint x="1111" y="1410" as="sourcePoint" />
            <mxPoint x="1241" y="1410" as="targetPoint" />
            <Array as="points">
              <mxPoint x="1170" y="1410" />
              <mxPoint x="1170" y="1557" />
            </Array>
          </mxGeometry>
        </mxCell>
        <mxCell id="EnKM5lxazUut5QGVH7Wx-20" value="Метрика&lt;br&gt;влияния на&lt;br&gt;доступность" style="text;html=1;align=center;verticalAlign=middle;resizable=0;points=[];autosize=1;strokeColor=none;fillColor=none;" parent="1" vertex="1">
          <mxGeometry x="1111" y="1350" width="90" height="60" as="geometry" />
        </mxCell>
        <mxCell id="EnKM5lxazUut5QGVH7Wx-22" value="" style="endArrow=classic;html=1;rounded=0;entryX=0.5;entryY=1;entryDx=0;entryDy=0;" parent="1" target="dIxgZ7Lg5NKT2PRfQF9l-12" edge="1">
          <mxGeometry width="50" height="50" relative="1" as="geometry">
            <mxPoint x="190" y="1670" as="sourcePoint" />
            <mxPoint x="510" y="1510" as="targetPoint" />
          </mxGeometry>
        </mxCell>
        <mxCell id="EnKM5lxazUut5QGVH7Wx-23" value="Аналитик ИБ" style="text;html=1;align=center;verticalAlign=middle;resizable=0;points=[];autosize=1;strokeColor=none;fillColor=none;" parent="1" vertex="1">
          <mxGeometry x="140" y="1670" width="100" height="30" as="geometry" />
        </mxCell>
        <mxCell id="EnKM5lxazUut5QGVH7Wx-24" value="" style="endArrow=classic;html=1;rounded=0;entryX=0.5;entryY=1;entryDx=0;entryDy=0;" parent="1" target="dIxgZ7Lg5NKT2PRfQF9l-25" edge="1">
          <mxGeometry width="50" height="50" relative="1" as="geometry">
            <mxPoint x="190" y="1600" as="sourcePoint" />
            <mxPoint x="380" y="1470" as="targetPoint" />
            <Array as="points">
              <mxPoint x="300" y="1600" />
            </Array>
          </mxGeometry>
        </mxCell>
        <mxCell id="EnKM5lxazUut5QGVH7Wx-25" value="" style="endArrow=classic;html=1;rounded=0;" parent="1" target="dIxgZ7Lg5NKT2PRfQF9l-30" edge="1">
          <mxGeometry width="50" height="50" relative="1" as="geometry">
            <mxPoint x="190" y="1600" as="sourcePoint" />
            <mxPoint x="450" y="1480" as="targetPoint" />
            <Array as="points">
              <mxPoint x="410" y="1600" />
            </Array>
          </mxGeometry>
        </mxCell>
        <mxCell id="EnKM5lxazUut5QGVH7Wx-26" value="" style="endArrow=classic;html=1;rounded=0;" parent="1" target="dIxgZ7Lg5NKT2PRfQF9l-34" edge="1">
          <mxGeometry width="50" height="50" relative="1" as="geometry">
            <mxPoint x="190" y="1600" as="sourcePoint" />
            <mxPoint x="670" y="1460" as="targetPoint" />
            <Array as="points">
              <mxPoint x="535" y="1600" />
            </Array>
          </mxGeometry>
        </mxCell>
        <mxCell id="EnKM5lxazUut5QGVH7Wx-27" value="" style="endArrow=classic;html=1;rounded=0;" parent="1" target="EnKM5lxazUut5QGVH7Wx-5" edge="1">
          <mxGeometry width="50" height="50" relative="1" as="geometry">
            <mxPoint x="190" y="1600" as="sourcePoint" />
            <mxPoint x="810" y="1540" as="targetPoint" />
            <Array as="points">
              <mxPoint x="695" y="1600" />
            </Array>
          </mxGeometry>
        </mxCell>
        <mxCell id="EnKM5lxazUut5QGVH7Wx-28" value="" style="endArrow=classic;html=1;rounded=0;" parent="1" target="EnKM5lxazUut5QGVH7Wx-9" edge="1">
          <mxGeometry width="50" height="50" relative="1" as="geometry">
            <mxPoint x="190" y="1600" as="sourcePoint" />
            <mxPoint x="870" y="1510" as="targetPoint" />
            <Array as="points">
              <mxPoint x="845" y="1600" />
            </Array>
          </mxGeometry>
        </mxCell>
        <mxCell id="EnKM5lxazUut5QGVH7Wx-29" value="" style="endArrow=classic;html=1;rounded=0;entryX=0.5;entryY=1;entryDx=0;entryDy=0;" parent="1" target="EnKM5lxazUut5QGVH7Wx-13" edge="1">
          <mxGeometry width="50" height="50" relative="1" as="geometry">
            <mxPoint x="190" y="1600" as="sourcePoint" />
            <mxPoint x="980" y="1670" as="targetPoint" />
            <Array as="points">
              <mxPoint x="950" y="1600" />
            </Array>
          </mxGeometry>
        </mxCell>
        <mxCell id="EnKM5lxazUut5QGVH7Wx-30" value="" style="endArrow=classic;html=1;rounded=0;entryX=0.5;entryY=1;entryDx=0;entryDy=0;" parent="1" target="EnKM5lxazUut5QGVH7Wx-17" edge="1">
          <mxGeometry width="50" height="50" relative="1" as="geometry">
            <mxPoint x="190" y="1600" as="sourcePoint" />
            <mxPoint x="860" y="1640" as="targetPoint" />
            <Array as="points">
              <mxPoint x="1050" y="1600" />
            </Array>
          </mxGeometry>
        </mxCell>
        <mxCell id="EnKM5lxazUut5QGVH7Wx-31" value="Расчёт базовой оценки критичности уязвимости" style="rounded=0;whiteSpace=wrap;html=1;" parent="1" vertex="1">
          <mxGeometry x="1320" y="1460" width="180" height="110" as="geometry" />
        </mxCell>
        <mxCell id="EnKM5lxazUut5QGVH7Wx-34" value="" style="endArrow=classic;html=1;rounded=0;entryX=0.5;entryY=0;entryDx=0;entryDy=0;" parent="1" target="dIxgZ7Lg5NKT2PRfQF9l-25" edge="1">
          <mxGeometry width="50" height="50" relative="1" as="geometry">
            <mxPoint x="190" y="690" as="sourcePoint" />
            <mxPoint x="380" y="640" as="targetPoint" />
            <Array as="points">
              <mxPoint x="300" y="690" />
            </Array>
          </mxGeometry>
        </mxCell>
        <mxCell id="EnKM5lxazUut5QGVH7Wx-35" value="" style="endArrow=classic;html=1;rounded=0;entryX=0.5;entryY=0;entryDx=0;entryDy=0;" parent="1" target="dIxgZ7Lg5NKT2PRfQF9l-30" edge="1">
          <mxGeometry width="50" height="50" relative="1" as="geometry">
            <mxPoint x="190" y="690" as="sourcePoint" />
            <mxPoint x="530" y="700" as="targetPoint" />
            <Array as="points">
              <mxPoint x="410" y="690" />
            </Array>
          </mxGeometry>
        </mxCell>
        <mxCell id="EnKM5lxazUut5QGVH7Wx-37" value="" style="endArrow=classic;html=1;rounded=0;entryX=0.5;entryY=0;entryDx=0;entryDy=0;" parent="1" target="dIxgZ7Lg5NKT2PRfQF9l-34" edge="1">
          <mxGeometry width="50" height="50" relative="1" as="geometry">
            <mxPoint x="190" y="690" as="sourcePoint" />
            <mxPoint x="550" y="1010" as="targetPoint" />
            <Array as="points">
              <mxPoint x="535" y="690" />
            </Array>
          </mxGeometry>
        </mxCell>
        <mxCell id="EnKM5lxazUut5QGVH7Wx-38" value="" style="endArrow=classic;html=1;rounded=0;entryX=0.5;entryY=0;entryDx=0;entryDy=0;" parent="1" target="EnKM5lxazUut5QGVH7Wx-5" edge="1">
          <mxGeometry width="50" height="50" relative="1" as="geometry">
            <mxPoint x="190" y="690" as="sourcePoint" />
            <mxPoint x="710" y="690" as="targetPoint" />
            <Array as="points">
              <mxPoint x="695" y="690" />
            </Array>
          </mxGeometry>
        </mxCell>
        <mxCell id="EnKM5lxazUut5QGVH7Wx-39" value="" style="endArrow=classic;html=1;rounded=0;entryX=0.5;entryY=0;entryDx=0;entryDy=0;" parent="1" target="EnKM5lxazUut5QGVH7Wx-9" edge="1">
          <mxGeometry width="50" height="50" relative="1" as="geometry">
            <mxPoint x="190" y="690" as="sourcePoint" />
            <mxPoint x="910" y="700" as="targetPoint" />
            <Array as="points">
              <mxPoint x="850" y="690" />
            </Array>
          </mxGeometry>
        </mxCell>
        <mxCell id="EnKM5lxazUut5QGVH7Wx-40" value="" style="endArrow=classic;html=1;rounded=0;entryX=0.5;entryY=0;entryDx=0;entryDy=0;" parent="1" target="EnKM5lxazUut5QGVH7Wx-13" edge="1">
          <mxGeometry width="50" height="50" relative="1" as="geometry">
            <mxPoint x="190" y="690" as="sourcePoint" />
            <mxPoint x="1070" y="680" as="targetPoint" />
            <Array as="points">
              <mxPoint x="950" y="690" />
            </Array>
          </mxGeometry>
        </mxCell>
        <mxCell id="EnKM5lxazUut5QGVH7Wx-41" value="" style="endArrow=classic;html=1;rounded=0;entryX=0.5;entryY=0;entryDx=0;entryDy=0;" parent="1" target="EnKM5lxazUut5QGVH7Wx-17" edge="1">
          <mxGeometry width="50" height="50" relative="1" as="geometry">
            <mxPoint x="190" y="690" as="sourcePoint" />
            <mxPoint x="1080" y="690" as="targetPoint" />
            <Array as="points">
              <mxPoint x="1050" y="690" />
            </Array>
          </mxGeometry>
        </mxCell>
        <mxCell id="EnKM5lxazUut5QGVH7Wx-42" value="" style="endArrow=classic;html=1;rounded=0;entryX=0.5;entryY=0;entryDx=0;entryDy=0;" parent="1" target="EnKM5lxazUut5QGVH7Wx-31" edge="1">
          <mxGeometry width="50" height="50" relative="1" as="geometry">
            <mxPoint x="1410" y="670" as="sourcePoint" />
            <mxPoint x="1480" y="1050" as="targetPoint" />
          </mxGeometry>
        </mxCell>
        <mxCell id="EnKM5lxazUut5QGVH7Wx-43" value="Формула расчёта&lt;br&gt;оценки" style="text;html=1;align=center;verticalAlign=middle;resizable=0;points=[];autosize=1;strokeColor=none;fillColor=none;" parent="1" vertex="1">
          <mxGeometry x="1350" y="620" width="120" height="40" as="geometry" />
        </mxCell>
        <mxCell id="EnKM5lxazUut5QGVH7Wx-46" value="" style="endArrow=classic;html=1;rounded=0;entryX=0.25;entryY=1;entryDx=0;entryDy=0;" parent="1" target="EnKM5lxazUut5QGVH7Wx-31" edge="1">
          <mxGeometry width="50" height="50" relative="1" as="geometry">
            <mxPoint x="190" y="1600" as="sourcePoint" />
            <mxPoint x="920" y="1680" as="targetPoint" />
            <Array as="points">
              <mxPoint x="1365" y="1600" />
            </Array>
          </mxGeometry>
        </mxCell>
        <mxCell id="EnKM5lxazUut5QGVH7Wx-47" value="" style="endArrow=classic;html=1;rounded=0;entryX=0.5;entryY=1;entryDx=0;entryDy=0;" parent="1" target="EnKM5lxazUut5QGVH7Wx-31" edge="1">
          <mxGeometry width="50" height="50" relative="1" as="geometry">
            <mxPoint x="1410" y="1760" as="sourcePoint" />
            <mxPoint x="1440" y="1660" as="targetPoint" />
          </mxGeometry>
        </mxCell>
        <mxCell id="EnKM5lxazUut5QGVH7Wx-48" value="Калькулятор CVSS" style="text;html=1;align=center;verticalAlign=middle;resizable=0;points=[];autosize=1;strokeColor=none;fillColor=none;" parent="1" vertex="1">
          <mxGeometry x="1345" y="1770" width="130" height="30" as="geometry" />
        </mxCell>
        <mxCell id="EnKM5lxazUut5QGVH7Wx-49" value="" style="endArrow=classic;html=1;rounded=0;exitX=1;exitY=0.5;exitDx=0;exitDy=0;" parent="1" source="EnKM5lxazUut5QGVH7Wx-31" edge="1">
          <mxGeometry width="50" height="50" relative="1" as="geometry">
            <mxPoint x="1550" y="1550" as="sourcePoint" />
            <mxPoint x="1660" y="1515" as="targetPoint" />
          </mxGeometry>
        </mxCell>
        <mxCell id="EnKM5lxazUut5QGVH7Wx-50" value="Базовая оценка критичности уязвимости" style="text;html=1;strokeColor=none;fillColor=none;align=center;verticalAlign=middle;whiteSpace=wrap;rounded=0;" parent="1" vertex="1">
          <mxGeometry x="1520" y="1480" width="110" height="30" as="geometry" />
        </mxCell>
      </root>
    </mxGraphModel>
  </diagram>
  <diagram id="1UO9V7tvZ4nB_jrqx7Pz" name="Страница 2">
    <mxGraphModel dx="1673" dy="867" grid="1" gridSize="10" guides="1" tooltips="1" connect="1" arrows="1" fold="1" page="1" pageScale="1" pageWidth="827" pageHeight="1169" math="0" shadow="0">
      <root>
        <mxCell id="0" />
        <mxCell id="1" parent="0" />
        <mxCell id="VcP_52gR09t_h1Mb2gBg-6" style="edgeStyle=orthogonalEdgeStyle;rounded=0;orthogonalLoop=1;jettySize=auto;html=1;exitX=1;exitY=0.5;exitDx=0;exitDy=0;entryX=0;entryY=0.5;entryDx=0;entryDy=0;" parent="1" source="VcP_52gR09t_h1Mb2gBg-1" target="VcP_52gR09t_h1Mb2gBg-2" edge="1">
          <mxGeometry relative="1" as="geometry" />
        </mxCell>
        <mxCell id="VcP_52gR09t_h1Mb2gBg-7" style="edgeStyle=orthogonalEdgeStyle;rounded=0;orthogonalLoop=1;jettySize=auto;html=1;exitX=1;exitY=0.5;exitDx=0;exitDy=0;entryX=0;entryY=0.5;entryDx=0;entryDy=0;" parent="1" source="VcP_52gR09t_h1Mb2gBg-1" target="VcP_52gR09t_h1Mb2gBg-3" edge="1">
          <mxGeometry relative="1" as="geometry" />
        </mxCell>
        <mxCell id="VcP_52gR09t_h1Mb2gBg-1" value="Эксплуатация&lt;br&gt;уязвимости&lt;br&gt;происходит&lt;br&gt;с использованием&lt;br&gt;сети?" style="rhombus;whiteSpace=wrap;html=1;" parent="1" vertex="1">
          <mxGeometry x="80" y="120" width="150" height="140" as="geometry" />
        </mxCell>
        <mxCell id="VcP_52gR09t_h1Mb2gBg-8" style="edgeStyle=orthogonalEdgeStyle;rounded=0;orthogonalLoop=1;jettySize=auto;html=1;exitX=1;exitY=0.5;exitDx=0;exitDy=0;" parent="1" source="VcP_52gR09t_h1Mb2gBg-2" target="VcP_52gR09t_h1Mb2gBg-4" edge="1">
          <mxGeometry relative="1" as="geometry" />
        </mxCell>
        <mxCell id="VcP_52gR09t_h1Mb2gBg-9" style="edgeStyle=orthogonalEdgeStyle;rounded=0;orthogonalLoop=1;jettySize=auto;html=1;exitX=1;exitY=0.5;exitDx=0;exitDy=0;" parent="1" source="VcP_52gR09t_h1Mb2gBg-2" target="VcP_52gR09t_h1Mb2gBg-5" edge="1">
          <mxGeometry relative="1" as="geometry" />
        </mxCell>
        <mxCell id="VcP_52gR09t_h1Mb2gBg-2" value="Уязвимость может эксплуатироваться только из смежной сети?" style="rhombus;whiteSpace=wrap;html=1;" parent="1" vertex="1">
          <mxGeometry x="280" y="20" width="150" height="140" as="geometry" />
        </mxCell>
        <mxCell id="VcP_52gR09t_h1Mb2gBg-14" style="edgeStyle=orthogonalEdgeStyle;rounded=0;orthogonalLoop=1;jettySize=auto;html=1;exitX=1;exitY=0.5;exitDx=0;exitDy=0;" parent="1" source="VcP_52gR09t_h1Mb2gBg-3" target="VcP_52gR09t_h1Mb2gBg-12" edge="1">
          <mxGeometry relative="1" as="geometry" />
        </mxCell>
        <mxCell id="VcP_52gR09t_h1Mb2gBg-15" style="edgeStyle=orthogonalEdgeStyle;rounded=0;orthogonalLoop=1;jettySize=auto;html=1;exitX=1;exitY=0.5;exitDx=0;exitDy=0;" parent="1" source="VcP_52gR09t_h1Mb2gBg-3" target="VcP_52gR09t_h1Mb2gBg-13" edge="1">
          <mxGeometry relative="1" as="geometry" />
        </mxCell>
        <mxCell id="VcP_52gR09t_h1Mb2gBg-3" value="Требуется ли злоумышленнику физический доступ к объекту?" style="rhombus;whiteSpace=wrap;html=1;" parent="1" vertex="1">
          <mxGeometry x="280" y="215" width="150" height="140" as="geometry" />
        </mxCell>
        <mxCell id="VcP_52gR09t_h1Mb2gBg-4" value="Network (N)&lt;br&gt;Уязвимость можно эксплуатировать из сети Интернет" style="rounded=0;whiteSpace=wrap;html=1;" parent="1" vertex="1">
          <mxGeometry x="480" y="10" width="190" height="70" as="geometry" />
        </mxCell>
        <mxCell id="VcP_52gR09t_h1Mb2gBg-5" value="Adjacent (A)&lt;br&gt;уязвимость можно эксплуатировать в ограниченной физической или логической сети" style="rounded=0;whiteSpace=wrap;html=1;" parent="1" vertex="1">
          <mxGeometry x="480" y="100" width="190" height="70" as="geometry" />
        </mxCell>
        <mxCell id="VcP_52gR09t_h1Mb2gBg-10" value="Нет" style="text;html=1;align=center;verticalAlign=middle;resizable=0;points=[];autosize=1;strokeColor=none;fillColor=none;" parent="1" vertex="1">
          <mxGeometry x="430" y="20" width="40" height="30" as="geometry" />
        </mxCell>
        <mxCell id="VcP_52gR09t_h1Mb2gBg-11" value="Нет" style="text;html=1;align=center;verticalAlign=middle;resizable=0;points=[];autosize=1;strokeColor=none;fillColor=none;" parent="1" vertex="1">
          <mxGeometry x="240" y="280" width="40" height="30" as="geometry" />
        </mxCell>
        <mxCell id="VcP_52gR09t_h1Mb2gBg-12" value="Local (L)&lt;br&gt;Атака совершается через уязвимость локального приложения, или атакующий может войти в систему локально" style="rounded=0;whiteSpace=wrap;html=1;" parent="1" vertex="1">
          <mxGeometry x="480" y="200" width="190" height="70" as="geometry" />
        </mxCell>
        <mxCell id="VcP_52gR09t_h1Mb2gBg-13" value="Physical (P)&lt;br&gt;Атака требует физического доступа к уязвимому компоненту" style="rounded=0;whiteSpace=wrap;html=1;" parent="1" vertex="1">
          <mxGeometry x="480" y="300" width="190" height="70" as="geometry" />
        </mxCell>
        <mxCell id="VcP_52gR09t_h1Mb2gBg-17" value="Нет" style="text;html=1;align=center;verticalAlign=middle;resizable=0;points=[];autosize=1;strokeColor=none;fillColor=none;" parent="1" vertex="1">
          <mxGeometry x="430" y="210" width="40" height="30" as="geometry" />
        </mxCell>
        <mxCell id="VcP_52gR09t_h1Mb2gBg-18" value="Да" style="text;html=1;align=center;verticalAlign=middle;resizable=0;points=[];autosize=1;strokeColor=none;fillColor=none;" parent="1" vertex="1">
          <mxGeometry x="240" y="60" width="40" height="30" as="geometry" />
        </mxCell>
        <mxCell id="VcP_52gR09t_h1Mb2gBg-19" value="Да" style="text;html=1;align=center;verticalAlign=middle;resizable=0;points=[];autosize=1;strokeColor=none;fillColor=none;" parent="1" vertex="1">
          <mxGeometry x="430" y="130" width="40" height="30" as="geometry" />
        </mxCell>
        <mxCell id="VcP_52gR09t_h1Mb2gBg-20" value="Да" style="text;html=1;align=center;verticalAlign=middle;resizable=0;points=[];autosize=1;strokeColor=none;fillColor=none;" parent="1" vertex="1">
          <mxGeometry x="430" y="330" width="40" height="30" as="geometry" />
        </mxCell>
        <mxCell id="VcP_52gR09t_h1Mb2gBg-21" value="" style="shape=flexArrow;endArrow=classic;html=1;rounded=0;" parent="1" edge="1">
          <mxGeometry width="50" height="50" relative="1" as="geometry">
            <mxPoint x="710" y="290" as="sourcePoint" />
            <mxPoint x="710" y="70" as="targetPoint" />
          </mxGeometry>
        </mxCell>
        <mxCell id="VcP_52gR09t_h1Mb2gBg-22" value="Базовый показатель &lt;br&gt;увеличивается тем больше,&lt;br&gt;чем дальше (логически и физически)&lt;br&gt;атакующий может находиться от цели" style="text;html=1;align=center;verticalAlign=middle;resizable=0;points=[];autosize=1;strokeColor=none;fillColor=none;" parent="1" vertex="1">
          <mxGeometry x="710" y="140" width="240" height="70" as="geometry" />
        </mxCell>
        <mxCell id="VcP_52gR09t_h1Mb2gBg-31" style="edgeStyle=orthogonalEdgeStyle;rounded=0;orthogonalLoop=1;jettySize=auto;html=1;exitX=1;exitY=0.5;exitDx=0;exitDy=0;" parent="1" source="VcP_52gR09t_h1Mb2gBg-33" target="VcP_52gR09t_h1Mb2gBg-34" edge="1">
          <mxGeometry relative="1" as="geometry" />
        </mxCell>
        <mxCell id="VcP_52gR09t_h1Mb2gBg-32" style="edgeStyle=orthogonalEdgeStyle;rounded=0;orthogonalLoop=1;jettySize=auto;html=1;exitX=1;exitY=0.5;exitDx=0;exitDy=0;" parent="1" source="VcP_52gR09t_h1Mb2gBg-33" target="VcP_52gR09t_h1Mb2gBg-35" edge="1">
          <mxGeometry relative="1" as="geometry" />
        </mxCell>
        <mxCell id="VcP_52gR09t_h1Mb2gBg-33" value="Может ли&lt;br&gt;злоумышленник эксплуатировать уязвимость&lt;br&gt;как угодно?" style="rhombus;whiteSpace=wrap;html=1;" parent="1" vertex="1">
          <mxGeometry x="80" y="515" width="150" height="140" as="geometry" />
        </mxCell>
        <mxCell id="VcP_52gR09t_h1Mb2gBg-34" value="Low (L)&lt;br&gt;Злоумышленник может эксплуатировать уязвимость когда угодно и при любых обстоятельствах" style="rounded=0;whiteSpace=wrap;html=1;" parent="1" vertex="1">
          <mxGeometry x="280" y="500" width="190" height="70" as="geometry" />
        </mxCell>
        <mxCell id="VcP_52gR09t_h1Mb2gBg-35" value="High (H)&lt;br&gt;Успешность атаки зависит от неподконтрольных злоумышленнику обстоятельств или условий" style="rounded=0;whiteSpace=wrap;html=1;" parent="1" vertex="1">
          <mxGeometry x="280" y="600" width="190" height="70" as="geometry" />
        </mxCell>
        <mxCell id="VcP_52gR09t_h1Mb2gBg-36" value="Нет" style="text;html=1;align=center;verticalAlign=middle;resizable=0;points=[];autosize=1;strokeColor=none;fillColor=none;" parent="1" vertex="1">
          <mxGeometry x="230" y="510" width="40" height="30" as="geometry" />
        </mxCell>
        <mxCell id="VcP_52gR09t_h1Mb2gBg-37" value="Да" style="text;html=1;align=center;verticalAlign=middle;resizable=0;points=[];autosize=1;strokeColor=none;fillColor=none;" parent="1" vertex="1">
          <mxGeometry x="230" y="630" width="40" height="30" as="geometry" />
        </mxCell>
        <mxCell id="VcP_52gR09t_h1Mb2gBg-39" value="" style="shape=flexArrow;endArrow=classic;html=1;rounded=0;" parent="1" edge="1">
          <mxGeometry width="50" height="50" relative="1" as="geometry">
            <mxPoint x="510" y="665" as="sourcePoint" />
            <mxPoint x="510" y="510" as="targetPoint" />
          </mxGeometry>
        </mxCell>
        <mxCell id="VcP_52gR09t_h1Mb2gBg-40" value="Базовый показатель&lt;br&gt;выше, если злоумышленнику&lt;br&gt;ничего не препятствует" style="text;html=1;align=center;verticalAlign=middle;resizable=0;points=[];autosize=1;strokeColor=none;fillColor=none;" parent="1" vertex="1">
          <mxGeometry x="515" y="550" width="190" height="60" as="geometry" />
        </mxCell>
        <mxCell id="VcP_52gR09t_h1Mb2gBg-41" style="edgeStyle=orthogonalEdgeStyle;rounded=0;orthogonalLoop=1;jettySize=auto;html=1;exitX=1;exitY=0.5;exitDx=0;exitDy=0;" parent="1" source="VcP_52gR09t_h1Mb2gBg-43" target="VcP_52gR09t_h1Mb2gBg-44" edge="1">
          <mxGeometry relative="1" as="geometry" />
        </mxCell>
        <mxCell id="VcP_52gR09t_h1Mb2gBg-42" style="edgeStyle=orthogonalEdgeStyle;rounded=0;orthogonalLoop=1;jettySize=auto;html=1;exitX=1;exitY=0.5;exitDx=0;exitDy=0;" parent="1" source="VcP_52gR09t_h1Mb2gBg-43" target="VcP_52gR09t_h1Mb2gBg-45" edge="1">
          <mxGeometry relative="1" as="geometry" />
        </mxCell>
        <mxCell id="VcP_52gR09t_h1Mb2gBg-43" value="Требуется ли &lt;br&gt;злоумышленнику&lt;br&gt;выполнение&amp;nbsp;какого-либо &lt;br&gt;действия от другого &lt;br&gt;пользователя ?" style="rhombus;whiteSpace=wrap;html=1;" parent="1" vertex="1">
          <mxGeometry x="30" y="730" width="200" height="155" as="geometry" />
        </mxCell>
        <mxCell id="VcP_52gR09t_h1Mb2gBg-44" value="None (N)&lt;br&gt;Атака может быть осуществлена без какого-либо взаимодействия с пользователем" style="rounded=0;whiteSpace=wrap;html=1;" parent="1" vertex="1">
          <mxGeometry x="280" y="730" width="190" height="70" as="geometry" />
        </mxCell>
        <mxCell id="VcP_52gR09t_h1Mb2gBg-45" value="Required (R)&lt;br&gt;Для успешной атаки требуется взаимодействие с пользователем" style="rounded=0;whiteSpace=wrap;html=1;" parent="1" vertex="1">
          <mxGeometry x="280" y="830" width="190" height="70" as="geometry" />
        </mxCell>
        <mxCell id="VcP_52gR09t_h1Mb2gBg-46" value="Нет" style="text;html=1;align=center;verticalAlign=middle;resizable=0;points=[];autosize=1;strokeColor=none;fillColor=none;" parent="1" vertex="1">
          <mxGeometry x="230" y="740" width="40" height="30" as="geometry" />
        </mxCell>
        <mxCell id="VcP_52gR09t_h1Mb2gBg-47" value="Да" style="text;html=1;align=center;verticalAlign=middle;resizable=0;points=[];autosize=1;strokeColor=none;fillColor=none;" parent="1" vertex="1">
          <mxGeometry x="230" y="860" width="40" height="30" as="geometry" />
        </mxCell>
        <mxCell id="VcP_52gR09t_h1Mb2gBg-48" value="" style="shape=flexArrow;endArrow=classic;html=1;rounded=0;" parent="1" edge="1">
          <mxGeometry width="50" height="50" relative="1" as="geometry">
            <mxPoint x="510" y="895" as="sourcePoint" />
            <mxPoint x="510" y="740" as="targetPoint" />
          </mxGeometry>
        </mxCell>
        <mxCell id="VcP_52gR09t_h1Mb2gBg-49" value="Базовый показатель&lt;br&gt;выше, если взаимодействие&lt;br&gt;с пользователем не требуется" style="text;html=1;align=center;verticalAlign=middle;resizable=0;points=[];autosize=1;strokeColor=none;fillColor=none;" parent="1" vertex="1">
          <mxGeometry x="515" y="790" width="190" height="60" as="geometry" />
        </mxCell>
        <mxCell id="cgP6Gqg2oOxtNv6yNMmN-1" style="edgeStyle=orthogonalEdgeStyle;rounded=0;orthogonalLoop=1;jettySize=auto;html=1;exitX=1;exitY=0.5;exitDx=0;exitDy=0;" parent="1" source="cgP6Gqg2oOxtNv6yNMmN-3" target="cgP6Gqg2oOxtNv6yNMmN-4" edge="1">
          <mxGeometry relative="1" as="geometry" />
        </mxCell>
        <mxCell id="cgP6Gqg2oOxtNv6yNMmN-2" style="edgeStyle=orthogonalEdgeStyle;rounded=0;orthogonalLoop=1;jettySize=auto;html=1;exitX=1;exitY=0.5;exitDx=0;exitDy=0;" parent="1" source="cgP6Gqg2oOxtNv6yNMmN-3" target="cgP6Gqg2oOxtNv6yNMmN-5" edge="1">
          <mxGeometry relative="1" as="geometry" />
        </mxCell>
        <mxCell id="cgP6Gqg2oOxtNv6yNMmN-3" value="Требуются ли права администратора?" style="rhombus;whiteSpace=wrap;html=1;" parent="1" vertex="1">
          <mxGeometry x="1020" y="515" width="150" height="140" as="geometry" />
        </mxCell>
        <mxCell id="cgP6Gqg2oOxtNv6yNMmN-4" value="Low (L)&lt;br&gt;Атака может быть реализована на уровне пользовательских привилегий" style="rounded=0;whiteSpace=wrap;html=1;" parent="1" vertex="1">
          <mxGeometry x="1220" y="500" width="190" height="70" as="geometry" />
        </mxCell>
        <mxCell id="cgP6Gqg2oOxtNv6yNMmN-5" value="High (H)&lt;br&gt;Атака может быть реализована только на уровне привилегий администратора или системы" style="rounded=0;whiteSpace=wrap;html=1;" parent="1" vertex="1">
          <mxGeometry x="1220" y="600" width="190" height="70" as="geometry" />
        </mxCell>
        <mxCell id="cgP6Gqg2oOxtNv6yNMmN-6" value="Нет" style="text;html=1;align=center;verticalAlign=middle;resizable=0;points=[];autosize=1;strokeColor=none;fillColor=none;" parent="1" vertex="1">
          <mxGeometry x="1170" y="510" width="40" height="30" as="geometry" />
        </mxCell>
        <mxCell id="cgP6Gqg2oOxtNv6yNMmN-7" value="Да" style="text;html=1;align=center;verticalAlign=middle;resizable=0;points=[];autosize=1;strokeColor=none;fillColor=none;" parent="1" vertex="1">
          <mxGeometry x="1170" y="630" width="40" height="30" as="geometry" />
        </mxCell>
        <mxCell id="cgP6Gqg2oOxtNv6yNMmN-8" value="" style="shape=flexArrow;endArrow=classic;html=1;rounded=0;" parent="1" edge="1">
          <mxGeometry width="50" height="50" relative="1" as="geometry">
            <mxPoint x="1450" y="665" as="sourcePoint" />
            <mxPoint x="1450" y="410" as="targetPoint" />
          </mxGeometry>
        </mxCell>
        <mxCell id="cgP6Gqg2oOxtNv6yNMmN-9" value="Базовый показатель&lt;br&gt;выше, если авторизация&lt;br&gt;не требуется" style="text;html=1;align=center;verticalAlign=middle;resizable=0;points=[];autosize=1;strokeColor=none;fillColor=none;" parent="1" vertex="1">
          <mxGeometry x="1460" y="500" width="160" height="60" as="geometry" />
        </mxCell>
        <mxCell id="cgP6Gqg2oOxtNv6yNMmN-21" style="edgeStyle=orthogonalEdgeStyle;rounded=0;orthogonalLoop=1;jettySize=auto;html=1;exitX=1;exitY=0.5;exitDx=0;exitDy=0;entryX=0;entryY=0.5;entryDx=0;entryDy=0;" parent="1" source="cgP6Gqg2oOxtNv6yNMmN-19" target="cgP6Gqg2oOxtNv6yNMmN-20" edge="1">
          <mxGeometry relative="1" as="geometry">
            <Array as="points">
              <mxPoint x="990" y="500" />
              <mxPoint x="990" y="435" />
            </Array>
          </mxGeometry>
        </mxCell>
        <mxCell id="cgP6Gqg2oOxtNv6yNMmN-22" style="edgeStyle=orthogonalEdgeStyle;rounded=0;orthogonalLoop=1;jettySize=auto;html=1;exitX=1;exitY=0.5;exitDx=0;exitDy=0;entryX=0;entryY=0.5;entryDx=0;entryDy=0;" parent="1" source="cgP6Gqg2oOxtNv6yNMmN-19" target="cgP6Gqg2oOxtNv6yNMmN-3" edge="1">
          <mxGeometry relative="1" as="geometry" />
        </mxCell>
        <mxCell id="cgP6Gqg2oOxtNv6yNMmN-19" value="Должен&lt;br&gt;ли атакующий быть авторизован на уязвимом компоненте до &lt;br&gt;начала атаки?" style="rhombus;whiteSpace=wrap;html=1;" parent="1" vertex="1">
          <mxGeometry x="810" y="430" width="150" height="140" as="geometry" />
        </mxCell>
        <mxCell id="cgP6Gqg2oOxtNv6yNMmN-20" value="None (N)&lt;br&gt;Атака может быть реализована без авторизации" style="rounded=0;whiteSpace=wrap;html=1;" parent="1" vertex="1">
          <mxGeometry x="1220" y="400" width="190" height="70" as="geometry" />
        </mxCell>
        <mxCell id="YstkmqXnSUYKRpRuCBe6-1" style="edgeStyle=orthogonalEdgeStyle;rounded=0;orthogonalLoop=1;jettySize=auto;html=1;exitX=1;exitY=0.5;exitDx=0;exitDy=0;" parent="1" source="YstkmqXnSUYKRpRuCBe6-3" target="YstkmqXnSUYKRpRuCBe6-4" edge="1">
          <mxGeometry relative="1" as="geometry" />
        </mxCell>
        <mxCell id="YstkmqXnSUYKRpRuCBe6-2" style="edgeStyle=orthogonalEdgeStyle;rounded=0;orthogonalLoop=1;jettySize=auto;html=1;exitX=1;exitY=0.5;exitDx=0;exitDy=0;" parent="1" source="YstkmqXnSUYKRpRuCBe6-3" target="YstkmqXnSUYKRpRuCBe6-5" edge="1">
          <mxGeometry relative="1" as="geometry" />
        </mxCell>
        <mxCell id="YstkmqXnSUYKRpRuCBe6-3" value="Влияет ли уязвимость в одном компоненте на ресурсы в компонентах&lt;br&gt;за пределами области его сферы безопасности?" style="rhombus;whiteSpace=wrap;html=1;" parent="1" vertex="1">
          <mxGeometry x="720" y="715" width="240" height="175" as="geometry" />
        </mxCell>
        <mxCell id="YstkmqXnSUYKRpRuCBe6-4" value="Changed (C)&lt;br&gt;Эксплуатация уязвимости может повлиять на ресурсы за пределами сферы безопасности, управляемой органом безопасности уязвимого компонента" style="rounded=0;whiteSpace=wrap;html=1;" parent="1" vertex="1">
          <mxGeometry x="1010" y="690" width="190" height="100" as="geometry" />
        </mxCell>
        <mxCell id="YstkmqXnSUYKRpRuCBe6-5" value="Unchanged (U)&lt;br&gt;&lt;div&gt;Уязвимость может повлиять&lt;/div&gt;&lt;div&gt;только на ресурсы, управляемые одним и тем же органом безопасности&lt;/div&gt;" style="rounded=0;whiteSpace=wrap;html=1;" parent="1" vertex="1">
          <mxGeometry x="1010" y="820" width="190" height="70" as="geometry" />
        </mxCell>
        <mxCell id="YstkmqXnSUYKRpRuCBe6-6" value="Нет" style="text;html=1;align=center;verticalAlign=middle;resizable=0;points=[];autosize=1;strokeColor=none;fillColor=none;" parent="1" vertex="1">
          <mxGeometry x="950" y="725" width="40" height="30" as="geometry" />
        </mxCell>
        <mxCell id="YstkmqXnSUYKRpRuCBe6-7" value="Да" style="text;html=1;align=center;verticalAlign=middle;resizable=0;points=[];autosize=1;strokeColor=none;fillColor=none;" parent="1" vertex="1">
          <mxGeometry x="960" y="850" width="40" height="30" as="geometry" />
        </mxCell>
        <mxCell id="YstkmqXnSUYKRpRuCBe6-8" value="" style="shape=flexArrow;endArrow=classic;html=1;rounded=0;" parent="1" edge="1">
          <mxGeometry width="50" height="50" relative="1" as="geometry">
            <mxPoint x="1240" y="885" as="sourcePoint" />
            <mxPoint x="1240" y="730" as="targetPoint" />
          </mxGeometry>
        </mxCell>
        <mxCell id="YstkmqXnSUYKRpRuCBe6-9" value="Базовый показатель&lt;br&gt;выше, если влияние уязвимости&lt;br&gt;выходит за пределы сферы&lt;br&gt;безопасности" style="text;html=1;align=center;verticalAlign=middle;resizable=0;points=[];autosize=1;strokeColor=none;fillColor=none;" parent="1" vertex="1">
          <mxGeometry x="1240" y="775" width="200" height="70" as="geometry" />
        </mxCell>
        <mxCell id="271wdwpbluVdZz_tvEB2-1" value="Нет" style="text;html=1;strokeColor=none;fillColor=none;align=center;verticalAlign=middle;whiteSpace=wrap;rounded=0;" parent="1" vertex="1">
          <mxGeometry x="970" y="400" width="60" height="30" as="geometry" />
        </mxCell>
        <mxCell id="271wdwpbluVdZz_tvEB2-2" value="Да" style="text;html=1;align=center;verticalAlign=middle;resizable=0;points=[];autosize=1;strokeColor=none;fillColor=none;" parent="1" vertex="1">
          <mxGeometry x="970" y="590" width="40" height="30" as="geometry" />
        </mxCell>
        <mxCell id="E1XwrZ_O2ow70j-Mtusg-1" style="edgeStyle=orthogonalEdgeStyle;rounded=0;orthogonalLoop=1;jettySize=auto;html=1;exitX=1;exitY=0.5;exitDx=0;exitDy=0;" edge="1" parent="1" source="E1XwrZ_O2ow70j-Mtusg-3" target="E1XwrZ_O2ow70j-Mtusg-4">
          <mxGeometry relative="1" as="geometry" />
        </mxCell>
        <mxCell id="E1XwrZ_O2ow70j-Mtusg-2" style="edgeStyle=orthogonalEdgeStyle;rounded=0;orthogonalLoop=1;jettySize=auto;html=1;exitX=1;exitY=0.5;exitDx=0;exitDy=0;" edge="1" parent="1" source="E1XwrZ_O2ow70j-Mtusg-3" target="E1XwrZ_O2ow70j-Mtusg-5">
          <mxGeometry relative="1" as="geometry" />
        </mxCell>
        <mxCell id="E1XwrZ_O2ow70j-Mtusg-3" value="Может ли злоумышленник&lt;br&gt;получить всю информацию&lt;br&gt;из пораженного компонента;&lt;br&gt;или раскрытая информация&lt;br&gt;является критически&lt;br&gt;важной?" style="rhombus;whiteSpace=wrap;html=1;" vertex="1" parent="1">
          <mxGeometry x="230" y="980" width="240" height="205" as="geometry" />
        </mxCell>
        <mxCell id="E1XwrZ_O2ow70j-Mtusg-4" value="High(H)&lt;br&gt;Вся информация раскрывается злоумышленнику; или раскрывается некоторая критичная информация" style="rounded=0;whiteSpace=wrap;html=1;" vertex="1" parent="1">
          <mxGeometry x="530" y="1000" width="190" height="70" as="geometry" />
        </mxCell>
        <mxCell id="E1XwrZ_O2ow70j-Mtusg-5" value="Low (L)&lt;br&gt;Некоторая информация может быть получена; или информация не является критичной" style="rounded=0;whiteSpace=wrap;html=1;" vertex="1" parent="1">
          <mxGeometry x="530" y="1100" width="190" height="70" as="geometry" />
        </mxCell>
        <mxCell id="E1XwrZ_O2ow70j-Mtusg-6" value="Нет" style="text;html=1;align=center;verticalAlign=middle;resizable=0;points=[];autosize=1;strokeColor=none;fillColor=none;" vertex="1" parent="1">
          <mxGeometry x="480" y="1130" width="40" height="30" as="geometry" />
        </mxCell>
        <mxCell id="E1XwrZ_O2ow70j-Mtusg-7" value="Да" style="text;html=1;align=center;verticalAlign=middle;resizable=0;points=[];autosize=1;strokeColor=none;fillColor=none;" vertex="1" parent="1">
          <mxGeometry x="480" y="1010" width="40" height="30" as="geometry" />
        </mxCell>
        <mxCell id="E1XwrZ_O2ow70j-Mtusg-8" value="" style="shape=flexArrow;endArrow=classic;html=1;rounded=0;" edge="1" parent="1">
          <mxGeometry width="50" height="50" relative="1" as="geometry">
            <mxPoint x="760" y="1265" as="sourcePoint" />
            <mxPoint x="760" y="1010" as="targetPoint" />
          </mxGeometry>
        </mxCell>
        <mxCell id="E1XwrZ_O2ow70j-Mtusg-9" value="Базовый показатель&lt;br&gt;прямо пропорционален&lt;br&gt;степени раскрываемости&lt;br&gt;информации" style="text;html=1;align=center;verticalAlign=middle;resizable=0;points=[];autosize=1;strokeColor=none;fillColor=none;" vertex="1" parent="1">
          <mxGeometry x="770" y="1100" width="160" height="70" as="geometry" />
        </mxCell>
        <mxCell id="_9gqNrt9rRYHEfE6uMC5-1" style="edgeStyle=orthogonalEdgeStyle;rounded=0;orthogonalLoop=1;jettySize=auto;html=1;exitX=1;exitY=0.5;exitDx=0;exitDy=0;entryX=0;entryY=0.5;entryDx=0;entryDy=0;" edge="1" parent="1" source="E1XwrZ_O2ow70j-Mtusg-12" target="E1XwrZ_O2ow70j-Mtusg-3">
          <mxGeometry relative="1" as="geometry" />
        </mxCell>
        <mxCell id="_9gqNrt9rRYHEfE6uMC5-2" style="edgeStyle=orthogonalEdgeStyle;rounded=0;orthogonalLoop=1;jettySize=auto;html=1;exitX=1;exitY=0.5;exitDx=0;exitDy=0;entryX=0;entryY=0.5;entryDx=0;entryDy=0;" edge="1" parent="1" source="E1XwrZ_O2ow70j-Mtusg-12" target="E1XwrZ_O2ow70j-Mtusg-13">
          <mxGeometry relative="1" as="geometry">
            <Array as="points">
              <mxPoint x="210" y="1195" />
              <mxPoint x="210" y="1235" />
            </Array>
          </mxGeometry>
        </mxCell>
        <mxCell id="E1XwrZ_O2ow70j-Mtusg-12" value="Оказывается ли&lt;br&gt;какое-либо воздействие на конфиденциальность?" style="rhombus;whiteSpace=wrap;html=1;" vertex="1" parent="1">
          <mxGeometry x="10" y="1120" width="180" height="150" as="geometry" />
        </mxCell>
        <mxCell id="E1XwrZ_O2ow70j-Mtusg-13" value="None (N)&lt;br&gt;Информация не может быть раскрыта" style="rounded=0;whiteSpace=wrap;html=1;" vertex="1" parent="1">
          <mxGeometry x="530" y="1200" width="190" height="70" as="geometry" />
        </mxCell>
        <mxCell id="E1XwrZ_O2ow70j-Mtusg-14" value="Нет" style="text;html=1;strokeColor=none;fillColor=none;align=center;verticalAlign=middle;whiteSpace=wrap;rounded=0;" vertex="1" parent="1">
          <mxGeometry x="160" y="1250" width="60" height="30" as="geometry" />
        </mxCell>
        <mxCell id="E1XwrZ_O2ow70j-Mtusg-15" value="Да" style="text;html=1;align=center;verticalAlign=middle;resizable=0;points=[];autosize=1;strokeColor=none;fillColor=none;" vertex="1" parent="1">
          <mxGeometry x="170" y="1110" width="40" height="30" as="geometry" />
        </mxCell>
        <mxCell id="_9gqNrt9rRYHEfE6uMC5-3" style="edgeStyle=orthogonalEdgeStyle;rounded=0;orthogonalLoop=1;jettySize=auto;html=1;exitX=1;exitY=0.5;exitDx=0;exitDy=0;" edge="1" parent="1" source="_9gqNrt9rRYHEfE6uMC5-5" target="_9gqNrt9rRYHEfE6uMC5-6">
          <mxGeometry relative="1" as="geometry" />
        </mxCell>
        <mxCell id="_9gqNrt9rRYHEfE6uMC5-4" style="edgeStyle=orthogonalEdgeStyle;rounded=0;orthogonalLoop=1;jettySize=auto;html=1;exitX=1;exitY=0.5;exitDx=0;exitDy=0;" edge="1" parent="1" source="_9gqNrt9rRYHEfE6uMC5-5" target="_9gqNrt9rRYHEfE6uMC5-7">
          <mxGeometry relative="1" as="geometry" />
        </mxCell>
        <mxCell id="_9gqNrt9rRYHEfE6uMC5-5" value="Может ли злоумышленник&lt;br&gt;модифицировать всю&lt;br&gt;информацию из &lt;br&gt;пораженного компонента;&lt;br&gt;или является ли модифицированная информация критически&lt;br&gt;важной?" style="rhombus;whiteSpace=wrap;html=1;" vertex="1" parent="1">
          <mxGeometry x="1210" y="970" width="260" height="215" as="geometry" />
        </mxCell>
        <mxCell id="_9gqNrt9rRYHEfE6uMC5-6" value="High(H)&lt;br&gt;Злоумышленник может модифицировать любую некритичную или какую-то критичную информацию" style="rounded=0;whiteSpace=wrap;html=1;" vertex="1" parent="1">
          <mxGeometry x="1540" y="1000" width="190" height="70" as="geometry" />
        </mxCell>
        <mxCell id="_9gqNrt9rRYHEfE6uMC5-7" value="Low (L)&lt;br&gt;Некоторая информация может быть модифицирована; или информация не является критичной" style="rounded=0;whiteSpace=wrap;html=1;" vertex="1" parent="1">
          <mxGeometry x="1540" y="1100" width="190" height="70" as="geometry" />
        </mxCell>
        <mxCell id="_9gqNrt9rRYHEfE6uMC5-8" value="Нет" style="text;html=1;align=center;verticalAlign=middle;resizable=0;points=[];autosize=1;strokeColor=none;fillColor=none;" vertex="1" parent="1">
          <mxGeometry x="1490" y="1130" width="40" height="30" as="geometry" />
        </mxCell>
        <mxCell id="_9gqNrt9rRYHEfE6uMC5-9" value="Да" style="text;html=1;align=center;verticalAlign=middle;resizable=0;points=[];autosize=1;strokeColor=none;fillColor=none;" vertex="1" parent="1">
          <mxGeometry x="1490" y="1010" width="40" height="30" as="geometry" />
        </mxCell>
        <mxCell id="_9gqNrt9rRYHEfE6uMC5-10" value="" style="shape=flexArrow;endArrow=classic;html=1;rounded=0;" edge="1" parent="1">
          <mxGeometry width="50" height="50" relative="1" as="geometry">
            <mxPoint x="1770" y="1265" as="sourcePoint" />
            <mxPoint x="1770" y="1010" as="targetPoint" />
          </mxGeometry>
        </mxCell>
        <mxCell id="_9gqNrt9rRYHEfE6uMC5-11" value="Базовый показатель&lt;br&gt;прямо пропорционален&lt;br&gt;степени модифицируемости&lt;br&gt;информации" style="text;html=1;align=center;verticalAlign=middle;resizable=0;points=[];autosize=1;strokeColor=none;fillColor=none;" vertex="1" parent="1">
          <mxGeometry x="1780" y="1099" width="180" height="70" as="geometry" />
        </mxCell>
        <mxCell id="_9gqNrt9rRYHEfE6uMC5-18" style="edgeStyle=orthogonalEdgeStyle;rounded=0;orthogonalLoop=1;jettySize=auto;html=1;exitX=1;exitY=0.5;exitDx=0;exitDy=0;" edge="1" parent="1" source="_9gqNrt9rRYHEfE6uMC5-14" target="_9gqNrt9rRYHEfE6uMC5-5">
          <mxGeometry relative="1" as="geometry" />
        </mxCell>
        <mxCell id="_9gqNrt9rRYHEfE6uMC5-19" style="edgeStyle=orthogonalEdgeStyle;rounded=0;orthogonalLoop=1;jettySize=auto;html=1;exitX=1;exitY=0.5;exitDx=0;exitDy=0;" edge="1" parent="1" source="_9gqNrt9rRYHEfE6uMC5-14" target="_9gqNrt9rRYHEfE6uMC5-15">
          <mxGeometry relative="1" as="geometry">
            <Array as="points">
              <mxPoint x="1180" y="1195" />
              <mxPoint x="1180" y="1235" />
            </Array>
          </mxGeometry>
        </mxCell>
        <mxCell id="_9gqNrt9rRYHEfE6uMC5-14" value="Оказывается ли&lt;br&gt;какое-либо воздействие на целостность?" style="rhombus;whiteSpace=wrap;html=1;" vertex="1" parent="1">
          <mxGeometry x="970" y="1120" width="180" height="150" as="geometry" />
        </mxCell>
        <mxCell id="_9gqNrt9rRYHEfE6uMC5-15" value="None (N)&lt;br&gt;Информация не может быть модифицирована" style="rounded=0;whiteSpace=wrap;html=1;" vertex="1" parent="1">
          <mxGeometry x="1540" y="1200" width="190" height="70" as="geometry" />
        </mxCell>
        <mxCell id="_9gqNrt9rRYHEfE6uMC5-16" value="Нет" style="text;html=1;strokeColor=none;fillColor=none;align=center;verticalAlign=middle;whiteSpace=wrap;rounded=0;" vertex="1" parent="1">
          <mxGeometry x="1130" y="1240" width="60" height="30" as="geometry" />
        </mxCell>
        <mxCell id="_9gqNrt9rRYHEfE6uMC5-17" value="Да" style="text;html=1;align=center;verticalAlign=middle;resizable=0;points=[];autosize=1;strokeColor=none;fillColor=none;" vertex="1" parent="1">
          <mxGeometry x="1150" y="1110" width="40" height="30" as="geometry" />
        </mxCell>
        <mxCell id="_9gqNrt9rRYHEfE6uMC5-35" style="edgeStyle=orthogonalEdgeStyle;rounded=0;orthogonalLoop=1;jettySize=auto;html=1;exitX=1;exitY=0.5;exitDx=0;exitDy=0;" edge="1" parent="1" source="_9gqNrt9rRYHEfE6uMC5-37" target="_9gqNrt9rRYHEfE6uMC5-38">
          <mxGeometry relative="1" as="geometry" />
        </mxCell>
        <mxCell id="_9gqNrt9rRYHEfE6uMC5-36" style="edgeStyle=orthogonalEdgeStyle;rounded=0;orthogonalLoop=1;jettySize=auto;html=1;exitX=1;exitY=0.5;exitDx=0;exitDy=0;" edge="1" parent="1" source="_9gqNrt9rRYHEfE6uMC5-37" target="_9gqNrt9rRYHEfE6uMC5-39">
          <mxGeometry relative="1" as="geometry" />
        </mxCell>
        <mxCell id="_9gqNrt9rRYHEfE6uMC5-37" value="Может ли злоумышленник&lt;br&gt;ограничить доступ к пораженному компоненту;&lt;br&gt;или является ли ресурс&lt;br&gt;критичным?" style="rhombus;whiteSpace=wrap;html=1;" vertex="1" parent="1">
          <mxGeometry x="245" y="1400" width="260" height="215" as="geometry" />
        </mxCell>
        <mxCell id="_9gqNrt9rRYHEfE6uMC5-38" value="High(H)&lt;br&gt;Затронутый компонент полностью недоступен; или ресурс является критичным и страдает от снижения производительности или перебоев в работе" style="rounded=0;whiteSpace=wrap;html=1;" vertex="1" parent="1">
          <mxGeometry x="575" y="1400" width="185" height="100" as="geometry" />
        </mxCell>
        <mxCell id="_9gqNrt9rRYHEfE6uMC5-39" value="Low (L)&lt;br&gt;Затронутый ресурс не является критичным, но страдает от снижения производительности или прерывания работы" style="rounded=0;whiteSpace=wrap;html=1;" vertex="1" parent="1">
          <mxGeometry x="575" y="1530" width="190" height="70" as="geometry" />
        </mxCell>
        <mxCell id="_9gqNrt9rRYHEfE6uMC5-40" value="Нет" style="text;html=1;align=center;verticalAlign=middle;resizable=0;points=[];autosize=1;strokeColor=none;fillColor=none;" vertex="1" parent="1">
          <mxGeometry x="525" y="1560" width="40" height="30" as="geometry" />
        </mxCell>
        <mxCell id="_9gqNrt9rRYHEfE6uMC5-41" value="Да" style="text;html=1;align=center;verticalAlign=middle;resizable=0;points=[];autosize=1;strokeColor=none;fillColor=none;" vertex="1" parent="1">
          <mxGeometry x="525" y="1440" width="40" height="30" as="geometry" />
        </mxCell>
        <mxCell id="_9gqNrt9rRYHEfE6uMC5-42" value="" style="shape=flexArrow;endArrow=classic;html=1;rounded=0;" edge="1" parent="1">
          <mxGeometry width="50" height="50" relative="1" as="geometry">
            <mxPoint x="805" y="1695" as="sourcePoint" />
            <mxPoint x="805" y="1440" as="targetPoint" />
          </mxGeometry>
        </mxCell>
        <mxCell id="_9gqNrt9rRYHEfE6uMC5-43" value="Базовый показатель&lt;br&gt;прямо пропорционален&lt;br&gt;степени нарушения&lt;br&gt;доступности" style="text;html=1;align=center;verticalAlign=middle;resizable=0;points=[];autosize=1;strokeColor=none;fillColor=none;" vertex="1" parent="1">
          <mxGeometry x="830" y="1529" width="150" height="70" as="geometry" />
        </mxCell>
        <mxCell id="_9gqNrt9rRYHEfE6uMC5-44" style="edgeStyle=orthogonalEdgeStyle;rounded=0;orthogonalLoop=1;jettySize=auto;html=1;exitX=1;exitY=0.5;exitDx=0;exitDy=0;" edge="1" parent="1" source="_9gqNrt9rRYHEfE6uMC5-46" target="_9gqNrt9rRYHEfE6uMC5-37">
          <mxGeometry relative="1" as="geometry" />
        </mxCell>
        <mxCell id="_9gqNrt9rRYHEfE6uMC5-45" style="edgeStyle=orthogonalEdgeStyle;rounded=0;orthogonalLoop=1;jettySize=auto;html=1;exitX=1;exitY=0.5;exitDx=0;exitDy=0;" edge="1" parent="1" source="_9gqNrt9rRYHEfE6uMC5-46" target="_9gqNrt9rRYHEfE6uMC5-47">
          <mxGeometry relative="1" as="geometry">
            <Array as="points">
              <mxPoint x="215" y="1625" />
              <mxPoint x="215" y="1665" />
            </Array>
          </mxGeometry>
        </mxCell>
        <mxCell id="_9gqNrt9rRYHEfE6uMC5-46" value="Оказывается ли&lt;br&gt;какое-либо воздействие на доступность?" style="rhombus;whiteSpace=wrap;html=1;" vertex="1" parent="1">
          <mxGeometry x="5" y="1550" width="180" height="150" as="geometry" />
        </mxCell>
        <mxCell id="_9gqNrt9rRYHEfE6uMC5-47" value="None (N)&lt;br&gt;Уязвимость не затрагивает доступность" style="rounded=0;whiteSpace=wrap;html=1;" vertex="1" parent="1">
          <mxGeometry x="575" y="1630" width="190" height="70" as="geometry" />
        </mxCell>
        <mxCell id="_9gqNrt9rRYHEfE6uMC5-48" value="Нет" style="text;html=1;strokeColor=none;fillColor=none;align=center;verticalAlign=middle;whiteSpace=wrap;rounded=0;" vertex="1" parent="1">
          <mxGeometry x="165" y="1670" width="60" height="30" as="geometry" />
        </mxCell>
        <mxCell id="_9gqNrt9rRYHEfE6uMC5-49" value="Да" style="text;html=1;align=center;verticalAlign=middle;resizable=0;points=[];autosize=1;strokeColor=none;fillColor=none;" vertex="1" parent="1">
          <mxGeometry x="185" y="1540" width="40" height="30" as="geometry" />
        </mxCell>
      </root>
    </mxGraphModel>
  </diagram>
</mxfile>
